<mxfile host="Electron" modified="2024-04-27T07:52:50.885Z" agent="Mozilla/5.0 (Windows NT 10.0; Win64; x64) AppleWebKit/537.36 (KHTML, like Gecko) draw.io/24.2.5 Chrome/120.0.6099.109 Electron/28.1.0 Safari/537.36" etag="Eghj4cK2p9ntu5gzp-uO" version="24.2.5" type="device">
  <diagram name="Page-1" id="SHTBiBU3y-VLYMNNROHS">
    <mxGraphModel dx="1257" dy="774" grid="1" gridSize="10" guides="1" tooltips="1" connect="1" arrows="1" fold="1" page="1" pageScale="1" pageWidth="850" pageHeight="1100" math="0" shadow="0">
      <root>
        <mxCell id="0" />
        <mxCell id="1" parent="0" />
        <mxCell id="6I6Z8ggjfQs4jGeCsE5s-72" value="" style="rounded=0;whiteSpace=wrap;html=1;" parent="1" vertex="1">
          <mxGeometry x="10" y="600" width="670" height="340" as="geometry" />
        </mxCell>
        <mxCell id="6I6Z8ggjfQs4jGeCsE5s-70" value="" style="rounded=1;whiteSpace=wrap;html=1;dashed=1;" parent="1" vertex="1">
          <mxGeometry x="20" y="870" width="650" height="60" as="geometry" />
        </mxCell>
        <mxCell id="6I6Z8ggjfQs4jGeCsE5s-67" value="" style="rounded=0;whiteSpace=wrap;html=1;" parent="1" vertex="1">
          <mxGeometry x="20" y="630" width="420" height="230" as="geometry" />
        </mxCell>
        <mxCell id="6I6Z8ggjfQs4jGeCsE5s-64" value="" style="rounded=0;whiteSpace=wrap;html=1;fillColor=default;" parent="1" vertex="1">
          <mxGeometry x="10" y="950" width="670" height="130" as="geometry" />
        </mxCell>
        <mxCell id="6I6Z8ggjfQs4jGeCsE5s-1" value="FreeRTOS" style="rounded=0;whiteSpace=wrap;html=1;" parent="1" vertex="1">
          <mxGeometry x="20" y="980" width="140" height="90" as="geometry" />
        </mxCell>
        <mxCell id="6I6Z8ggjfQs4jGeCsE5s-2" value="STM32F4 HAL Driver" style="rounded=0;whiteSpace=wrap;html=1;" parent="1" vertex="1">
          <mxGeometry x="170" y="1030" width="390" height="40" as="geometry" />
        </mxCell>
        <mxCell id="6I6Z8ggjfQs4jGeCsE5s-3" value="RCC Management" style="rounded=0;whiteSpace=wrap;html=1;" parent="1" vertex="1">
          <mxGeometry x="390" y="980" width="170" height="40" as="geometry" />
        </mxCell>
        <mxCell id="6I6Z8ggjfQs4jGeCsE5s-4" value="Run-Time Stats &lt;br&gt;Timer" style="rounded=0;whiteSpace=wrap;html=1;" parent="1" vertex="1">
          <mxGeometry x="170" y="980" width="100" height="40" as="geometry" />
        </mxCell>
        <mxCell id="6I6Z8ggjfQs4jGeCsE5s-5" value="HAL Timebase&lt;br&gt;Timer" style="rounded=0;whiteSpace=wrap;html=1;" parent="1" vertex="1">
          <mxGeometry x="280" y="980" width="100" height="40" as="geometry" />
        </mxCell>
        <mxCell id="6I6Z8ggjfQs4jGeCsE5s-6" value="Utilities" style="rounded=0;whiteSpace=wrap;html=1;" parent="1" vertex="1">
          <mxGeometry x="570" y="980" width="100" height="90" as="geometry" />
        </mxCell>
        <mxCell id="6I6Z8ggjfQs4jGeCsE5s-9" value="Core" style="rounded=0;whiteSpace=wrap;html=1;" parent="1" vertex="1">
          <mxGeometry x="10" y="950" width="80" height="20" as="geometry" />
        </mxCell>
        <mxCell id="6I6Z8ggjfQs4jGeCsE5s-10" value="STDIO UART" style="rounded=0;whiteSpace=wrap;html=1;" parent="1" vertex="1">
          <mxGeometry x="310" y="810" width="120" height="40" as="geometry" />
        </mxCell>
        <mxCell id="6I6Z8ggjfQs4jGeCsE5s-11" value="DMA Management" style="rounded=0;whiteSpace=wrap;html=1;" parent="1" vertex="1">
          <mxGeometry x="30" y="880" width="190" height="40" as="geometry" />
        </mxCell>
        <mxCell id="6I6Z8ggjfQs4jGeCsE5s-12" value="GPIO Management" style="rounded=0;whiteSpace=wrap;html=1;" parent="1" vertex="1">
          <mxGeometry x="250" y="880" width="190" height="40" as="geometry" />
        </mxCell>
        <mxCell id="6I6Z8ggjfQs4jGeCsE5s-13" value="RTC" style="rounded=0;whiteSpace=wrap;html=1;" parent="1" vertex="1">
          <mxGeometry x="470" y="880" width="190" height="40" as="geometry" />
        </mxCell>
        <mxCell id="6I6Z8ggjfQs4jGeCsE5s-14" value="MTD" style="rounded=0;whiteSpace=wrap;html=1;" parent="1" vertex="1">
          <mxGeometry x="30" y="760" width="260" height="40" as="geometry" />
        </mxCell>
        <mxCell id="6I6Z8ggjfQs4jGeCsE5s-15" value="USB FS MSC Host Driver" style="rounded=0;whiteSpace=wrap;html=1;" parent="1" vertex="1">
          <mxGeometry x="30" y="810" width="120" height="40" as="geometry" />
        </mxCell>
        <mxCell id="6I6Z8ggjfQs4jGeCsE5s-16" value="SD Card Driver" style="rounded=0;whiteSpace=wrap;html=1;" parent="1" vertex="1">
          <mxGeometry x="170" y="810" width="120" height="40" as="geometry" />
        </mxCell>
        <mxCell id="6I6Z8ggjfQs4jGeCsE5s-18" value="FatFs" style="rounded=0;whiteSpace=wrap;html=1;" parent="1" vertex="1">
          <mxGeometry x="30" y="710" width="100" height="40" as="geometry" />
        </mxCell>
        <mxCell id="6I6Z8ggjfQs4jGeCsE5s-19" value="VFS" style="rounded=0;whiteSpace=wrap;html=1;" parent="1" vertex="1">
          <mxGeometry x="30" y="660" width="400" height="40" as="geometry" />
        </mxCell>
        <mxCell id="6I6Z8ggjfQs4jGeCsE5s-21" value="CWD" style="rounded=0;whiteSpace=wrap;html=1;" parent="1" vertex="1">
          <mxGeometry x="460" y="630" width="100" height="50" as="geometry" />
        </mxCell>
        <mxCell id="6I6Z8ggjfQs4jGeCsE5s-23" value="System" style="rounded=0;whiteSpace=wrap;html=1;" parent="1" vertex="1">
          <mxGeometry x="10" y="600" width="80" height="20" as="geometry" />
        </mxCell>
        <mxCell id="6I6Z8ggjfQs4jGeCsE5s-65" value="Other filesystem" style="rounded=0;whiteSpace=wrap;html=1;" parent="1" vertex="1">
          <mxGeometry x="190" y="710" width="100" height="40" as="geometry" />
        </mxCell>
        <mxCell id="6I6Z8ggjfQs4jGeCsE5s-66" value="..." style="text;html=1;align=center;verticalAlign=middle;whiteSpace=wrap;rounded=0;" parent="1" vertex="1">
          <mxGeometry x="142.5" y="710" width="35" height="40" as="geometry" />
        </mxCell>
        <mxCell id="6I6Z8ggjfQs4jGeCsE5s-68" value="Filesystem" style="rounded=0;whiteSpace=wrap;html=1;" parent="1" vertex="1">
          <mxGeometry x="20" y="630" width="80" height="20" as="geometry" />
        </mxCell>
        <mxCell id="6I6Z8ggjfQs4jGeCsE5s-71" value="CLI" style="rounded=0;whiteSpace=wrap;html=1;" parent="1" vertex="1">
          <mxGeometry x="570" y="630" width="100" height="50" as="geometry" />
        </mxCell>
        <mxCell id="6I6Z8ggjfQs4jGeCsE5s-73" value="Application" style="rounded=0;whiteSpace=wrap;html=1;" parent="1" vertex="1">
          <mxGeometry x="10" y="490" width="670" height="60" as="geometry" />
        </mxCell>
        <mxCell id="N3yBo--Embdvz6zFB0pi-1" value="newlib syscalls" style="rounded=0;whiteSpace=wrap;html=1;" vertex="1" parent="1">
          <mxGeometry x="10" y="560" width="670" height="30" as="geometry" />
        </mxCell>
      </root>
    </mxGraphModel>
  </diagram>
</mxfile>
